<?xml version="1.0" encoding="UTF-8"?>
<svg width="170px" height="50px" viewBox="0 0 170 50" version="1.1" xmlns="http://www.w3.org/2000/svg" xmlns:xlink="http://www.w3.org/1999/xlink">
    <!-- Generator: Sketch 48.2 (47327) - http://www.bohemiancoding.com/sketch -->
    <title>FEZ UI Copy 2</title>
    <desc>Created with Sketch.</desc>
    <defs></defs>
    <g id="LOGO" stroke="none" stroke-width="1" fill="none" fill-rule="evenodd" transform="translate(-123.000000, -105.000000)">
        <g id="FEZ-UI-Copy-2" transform="translate(123.000000, 105.000000)">
            <g id="Group">
                <g id="Group-3">
                    <path d="M10,20 L20,20 L20,30 L10,30 L10,40 L0,40 L0,10 L10,10 L10,20 Z M10,0 L20,0 L20,10 L10,10 L10,0 Z" id="Combined-Shape" fill="#79BAFF"></path>
                    <path d="M0,40 L10,40 L10,50 C4.4771525,50 6.76353751e-16,45.5228475 0,40 Z M20,20 L30,20 C30,25.5228475 25.5228475,30 20,30 L20,20 Z M10,0 L10,10 L0,10 C-6.76353751e-16,4.4771525 4.4771525,1.01453063e-15 10,0 Z M20,0 L30,0 C30,5.5228475 25.5228475,10 20,10 L20,0 Z" id="Combined-Shape" fill="#3798FF"></path>
                </g>
                <g id="Group-3-Copy" transform="translate(40.000000, 0.000000)">
                    <path d="M10,20 L20,20 L20,30 L10,30 L10,40 L0,40 L0,10 L10,10 L10,20 Z M10,0 L20,0 L20,10 L10,10 L10,0 Z M10,40 L20,40 L20,50 L10,50 L10,40 Z" id="Combined-Shape" fill="#79BAFF"></path>
                    <path d="M0,40 L10,40 L10,50 C4.4771525,50 6.76353751e-16,45.5228475 0,40 Z M20,20 L30,20 C30,25.5228475 25.5228475,30 20,30 L20,20 Z M10,0 L10,10 L0,10 C-6.76353751e-16,4.4771525 4.4771525,1.01453063e-15 10,0 Z M20,0 L30,0 C30,5.5228475 25.5228475,10 20,10 L20,0 Z M20,40 L30,40 C30,45.5228475 25.5228475,50 20,50 L20,40 Z" id="Combined-Shape" fill="#3798FF"></path>
                </g>
                <g id="Group-3-Copy-2" transform="translate(80.000000, 0.000000)">
                    <path d="M10,0 L10,10 L0,10 C-6.76353751e-16,4.4771525 4.4771525,1.01453063e-15 10,0 Z M20,10 L30,10 C30,15.5228475 25.5228475,20 20,20 L20,10 Z M10,30 L10,40 L0,40 C-6.76353751e-16,34.4771525 4.4771525,30 10,30 Z M20,40 L30,40 C30,45.5228475 25.5228475,50 20,50 L20,40 Z" id="Combined-Shape" fill="#3798FF"></path>
                    <path d="M10,0 L30,0 L30,10 L10,10 L10,0 Z M10,20 L20,20 L20,30 L10,30 L10,20 Z M0,40 L20,40 L20,50 L0,50 L0,40 Z" id="Combined-Shape" fill="#79BAFF"></path>
                </g>
            </g>
            <g id="Group-3-Copy-3" transform="translate(120.000000, 0.000000)">
                <path d="M1.77635684e-15,0 C5.5228475,1.01453063e-15 10,4.4771525 10,10 L0,10 L0,0 Z M30,10 L20,10 C20,4.4771525 24.4771525,0 30,0 L30,10 Z M6.123234e-16,40 L10,40 L10,50 C4.4771525,50 1.28867715e-15,45.5228475 6.123234e-16,40 Z M20,40 L30,40 C30,45.5228475 25.5228475,50 20,50 L20,40 Z" id="Combined-Shape" fill="#FF8629"></path>
                <path d="M0,10 L10,10 L10,40 L0,40 L0,10 Z M10,40 L20,40 L20,50 L10,50 L10,40 Z M20,10 L30,10 L30,40 L20,40 L20,10 Z" id="Combined-Shape" fill="#FFA966"></path>
            </g>
            <g id="Group-3-Copy-4" transform="translate(160.000000, 0.000000)">
                <path d="M1.77635684e-15,0 C5.5228475,1.01453063e-15 10,4.4771525 10,10 L0,10 L0,0 Z M6.123234e-16,40 L10,40 L10,50 C4.4771525,50 1.28867715e-15,45.5228475 6.123234e-16,40 Z" id="Combined-Shape" fill="#FF8629"></path>
                <rect id="Rectangle-2-Copy-13" fill="#FFA966" x="0" y="10" width="10" height="30"></rect>
            </g>
        </g>
    </g>
</svg>